# xmcd
#
# Track frame offsets:
#	150
#	13771
#	25394
#	39479
#	52841
#	66919
#	80672
#	94956
#	107721
#	120856
#	130877
#	142990
#	157452
#	172663
#	184884
#	199242
#	212643
#	224852
#	239509
#	254804
#	268124
#	280912
#
# Disc length: 3954 seconds
#
# Revision: 1
# Processed by: cddbd v1.5.2PL0 Copyright (c) Steve Scherf et al.
# Submitted via: audiograbber 1.83.01
#
DISCID=550f7016
DTITLE=Muddy Waters - Rollin' Stone [CD 2)
DYEAR=2002
DGENRE=Blues
TTITLE0=Rollin' And Tumblin', Pt. 1
TTITLE1=Rollin' And Tumblin', Pt. 2
TTITLE2=Rollin' Stone
TTITLE3=Walking Blues
TTITLE4=Youre Gonna Need My Help, I Said
TTITLE5=Sad Letter Blues
TTITLE6=Early Morning Blues
TTITLE7=Appealing Blues (Hello Little Girl)
TTITLE8=Louisiana Blues
TTITLE9=Evans Shuffle
TTITLE10=Long Distance Call
TTITLE11=Too Young To Know
TTITLE12=Honey Bee
TTITLE13=Howling Wolf
TTITLE14=Country Boy
TTITLE15=She Moves Me
TTITLE16=My Fault
TTITLE17=Still A Fool
TTITLE18=They Call Me Muddy Waters
TTITLE19=All Night Long
TTITLE20=Stuff You Gotta Watch
TTITLE21=Lonesome Day
EXTD=
EXTT0=
EXTT1=
EXTT2=
EXTT3=
EXTT4=
EXTT5=
EXTT6=
EXTT7=
EXTT8=
EXTT9=
EXTT10=
EXTT11=
EXTT12=
EXTT13=
EXTT14=
EXTT15=
EXTT16=
EXTT17=
EXTT18=
EXTT19=
EXTT20=
EXTT21=
PLAYORDER=
